<?xml version="1.0" encoding="UTF-8"?><svg id="Layer_2" xmlns="http://www.w3.org/2000/svg" viewBox="0 0 119.7 136.19"><defs><style>.cls-1{fill:#1d1d1b;}.cls-1,.cls-2{stroke-width:0px;}.cls-2{fill:#2ab3b5;}</style></defs><g id="Layer_1-2"><path class="cls-2" d="M88.95,52.93c-.82-.72-1.92-1.03-3-1.03H4.27c-2.06,0-3.87,1.48-4.22,3.6-.24,1.43.34,2.88,1.4,3.88l30.83,29.24,10.84,44.13c.39,1.59,1.59,2.93,3.18,3.31.34.08.68.12,1.01.12,1.59,0,3.06-.89,3.8-2.32l38.85-75.74c.88-1.71.52-3.85-1.01-5.19ZM48.73,119.78l-7.73-31.48,21.14-13c1.93-1.17,2.82-3.62,1.82-5.65-1.12-2.28-3.92-3.07-6.05-1.78l-21.29,13.09-21.64-20.52h64.18l-30.43,59.34Z"/><path class="cls-1" d="M105.71,0h-50.74c-7.73,0-13.99,6.26-13.99,13.99v37.92h9.37V14.27c0-2.73,2.21-4.94,4.94-4.94h9.66c1.03,0,1.87.84,1.87,1.87,0,.19.01.37.04.55h0s0,0,0,0c.27,1.8,1.82,3.18,3.69,3.18h19.59c1.87,0,3.42-1.38,3.69-3.18h0s0-.01,0-.01c.02-.17.04-.35.04-.53h0c0-1.04.84-1.88,1.87-1.88h9.7c2.73,0,4.94,2.21,4.94,4.94v103.72c0,2.73-2.21,4.94-4.94,4.94h-48.58l-4.69,9.14c.91.18,1.84.28,2.8.28h50.74c7.73,0,13.99-6.26,13.99-13.99V13.99c0-7.73-6.26-13.99-13.99-13.99Z"/></g></svg>
