<?xml version="1.0" encoding="utf-8"?>
<!-- Generator: Adobe Illustrator 26.5.0, SVG Export Plug-In . SVG Version: 6.00 Build 0)  -->
<svg version="1.1" id="Layer_1" xmlns="http://www.w3.org/2000/svg" xmlns:xlink="http://www.w3.org/1999/xlink" x="0px" y="0px"
	 viewBox="0 0 1736 1602" style="enable-background:new 0 0 1736 1602;" xml:space="preserve">
<style type="text/css">
	.st0{fill:#2CB4B7;}
</style>
<g>
	<path class="st0" d="M1661.73,212.92c0-3,0.06-6-0.05-9c-0.84-23.04-6.57-44.78-18.09-64.77c-19.05-33.05-47.22-54.56-83.83-65.09
		c-0.06-0.62-2.73-1.88-4.07-1.88c-252,0-504,0-756,0c-1.33,0-4.21,1.08-4.22,1.63c0,0,0,0,0,0c-8.67,2.42-17.29,5.07-25.3,9.22
		c-50.81,26.33-77.8,68.53-78.06,125.37c-0.78,170.98-0.28,341.97-0.28,512.96c0,2.67-0.21,5.35,0.04,8
		c0.43,4.52-1.56,6.34-5.92,7.44c-15.49,3.91-30.85,8.31-46.28,12.46c-148.18,39.85-296.37,79.67-444.55,119.53
		c-31.18,8.39-62.3,16.99-93.52,25.24c-15.26,4.03-25.35,13.22-29.01,28.51c-3.65,15.26,0.92,28.27,12.84,38.6
		c1.76,1.53,3.46,3.14,5.21,4.67c58.72,51.32,117.16,102.96,176.39,153.68c12.33,10.56,19.36,21.66,22.02,37.9
		c8.74,53.54,19.04,106.82,28.79,160.19c3.17,17.35,5.91,34.81,9.86,51.99c6,26.08,35.74,37.06,57.7,21.72
		c3.54-2.47,6.77-5.4,10.07-8.21c27.17-23.09,54.32-46.21,81.49-69.31c5.95-5.06,6.04-5.14,11.97,0.02
		c45.47,39.63,90.92,79.3,136.36,118.96c34.4,30.02,68.6,60.28,103.26,89.98c20.4,17.49,45.92,12.51,59.2-10.79
		c3.96-6.95,7.87-13.93,11.4-21.1c2.1-4.26,4.82-5.61,9.51-4.87c16.87,2.65,33.91,1.78,50.89,1.78
		c218.65,0.01,437.3-0.02,655.96-0.01c8,0,15.96-0.26,23.94-1.19c36.83-4.3,67.2-20.62,90.74-49.17
		c22.1-26.8,31.62-57.95,31.61-92.55C1661.69,967.53,1661.73,590.23,1661.73,212.92z M832.87,170.08
		c229.6,0.39,459.2,0.22,688.8,0.24c19.43,0,33.37,9.92,38.68,27.02c1.11,3.59,1.35,7.18,1.35,10.85c0.03,23.99,0.06,47.99,0,71.98
		c-0.02,8.56-0.13,8.66-8.96,8.68c-26.66,0.07-53.32,0.06-79.98,0.06c-98.64,0.01-197.28,0-295.91,0c-124.3,0-248.59,0-372.89-0.01
		c-13.69,0-12.12,0.9-12.16-12.53c-0.06-21.66,0.59-43.34-0.18-64.98C790.76,187.4,809.81,170.04,832.87,170.08z M1561.69,1205.78
		c0.14,3.33-1.37,4.93-4.72,4.86c-2.33-0.05-4.67,0.04-7,0.04c-195.64,0.01-391.29,0.03-586.93-0.01c-3.53,0-7.24,0.96-10.65-1
		c-0.51-3.42,1.74-5.73,3.11-8.26c86.4-160.04,172.85-320.06,259.27-480.09c12.66-23.45,25.32-46.9,37.84-70.42
		c7.57-14.22,7-28.24-2.42-41.43c-9.11-12.75-24.04-17.84-39.82-13.65c-45.36,12.06-90.67,24.26-135.99,36.45
		c-90.64,24.4-181.26,48.84-271.9,73.2c-3.16,0.85-6.29,2.19-9.74,1.8c-1.7-3.18-0.93-6.56-0.93-9.8
		c-0.04-113.32-0.04-226.64-0.04-339.96c0-2,0.11-4,0-6c-0.21-3.74,1.34-5.58,5.22-5.39c2.33,0.12,4.66,0,7,0
		c248.31-0.01,496.61-0.02,744.92-0.03c1,0,2,0,3,0c10.36-0.01,9.81-0.47,9.81,9.77c0,281.64,0,563.27,0,844.91
		C1561.72,1202.45,1561.62,1204.12,1561.69,1205.78z M973.22,737.55c-0.3,0.07-0.6,0.15-0.89,0.23
		C972.62,737.7,972.92,737.62,973.22,737.55z M971.55,738.01c-0.15,0.05-0.29,0.1-0.43,0.14
		C971.26,738.11,971.41,738.06,971.55,738.01z M344.08,1080.95c-2.62,1.66-4.6,1.39-7.06-0.77
		c-48.81-42.87-97.71-85.63-146.57-128.44c-0.46-0.4-0.64-1.11-1.41-2.52c3.09-0.95,6.05-1.95,9.06-2.76
		c124.01-33.37,248.03-66.71,372.03-100.08c130.76-35.19,261.51-70.28,392.27-105.47c1.6-0.43,3.27-0.71,4.91-0.71c0,0,0,0,0,0
		c0.09-0.07,0.19-0.13,0.28-0.2c1.5,0.36,3.13,0.46,4,2.07c3.34-0.9,6.33-2.39,9.98-6.04c0.06-0.01,0.12-0.02,0.18-0.03
		c-3.74,3.78-6.76,5.22-10.16,6.14c-43.33,23.47-86.62,46.95-129.98,70.36c-164.08,88.57-328.17,177.09-492.26,265.64
		C347.6,1079.08,345.77,1079.89,344.08,1080.95z M395.02,1281.64c-1.54,1.23-3.19,2.31-5.53,3.99c-3.27-8.53-3.88-17.05-5.41-25.28
		c-7.98-42.86-15.66-85.77-23.47-128.66c-1.62-8.91-1.72-8.94,6.15-13.18c102.01-55.02,204.04-110.01,306.04-165.03
		c126.33-68.14,252.65-136.31,378.98-204.46c3.22-1.74,6.53-3.29,9.8-4.92c0.71,0.71,1.43,1.42,2.14,2.14
		c-37.66,30.24-75.29,60.53-113,90.71c-104.57,83.71-209.17,167.38-313.76,251.07C556.32,1152.56,475.68,1217.11,395.02,1281.64z
		 M749.93,1423.51c-1.87,3.46-3.81,6.88-6.31,11.39c-74.78-65.26-148.91-129.95-223.83-195.33
		C710.39,1087.8,901.04,936,1091.7,784.21c0.74,0.71,1.48,1.41,2.22,2.12c-62.93,116.61-125.84,233.22-188.79,349.82
		C853.42,1231.94,801.67,1327.72,749.93,1423.51z M1561.38,1353.27c-0.53,17.8-16.3,32.23-34.08,33.15
		c-3.32,0.17-6.66,0.13-9.99,0.13c-216.53,0.02-433.06,0.04-649.59,0.01c-3.51,0-7.16,0.71-11.1-0.87
		c1.62-5.55,4.78-9.87,7.26-14.49c17.02-31.67,34.28-63.22,51.06-95.02c3.23-6.13,6.94-8.3,13.9-8.29
		c207.54,0.19,415.07,0.14,622.61,0.14c1.67,0,3.34,0.1,5,0c3.81-0.23,5.31,1.5,5.29,5.3
		C1561.62,1299.98,1562.18,1326.64,1561.38,1353.27z"/>
	<path class="st0" d="M1111.79,258.08c21.63,0.42,114.17,0.42,130.8-0.02c15.91-0.42,27.52-12.83,27.47-28.43
		c-0.04-15.49-10.92-26.9-26.72-27.98c-2.32-0.16-4.66-0.11-6.99-0.11c-39.61-0.01-79.22-0.01-118.82,0.01
		c-2.99,0-6.01-0.04-8.97,0.28c-11.32,1.21-19.11,7.25-23.13,17.84C1078.3,238.41,1091.33,257.68,1111.79,258.08z"/>
	<path class="st0" d="M1198.86,1298.73c-14.62-0.59-29.29-0.36-43.92-0.01c-5.99,0.14-11.76,1.96-16.73,5.77
		c-9.38,7.19-13.43,19.68-10.02,31.34c3.2,10.92,13.7,19.03,26.35,19.87c7.29,0.48,14.15,0.09,22.15,0.09c0,0.02,0,0.04,0,0.07
		c7,0,13.79,0.17,20.78-0.04c9.01-0.28,16.94-3.16,22.75-10.41c7.04-8.77,8.59-18.65,4.33-29.04
		C1219.9,1305.07,1210.72,1299.21,1198.86,1298.73z"/>
</g>
</svg>
